<svg xmlns="http://www.w3.org/2000/svg" xmlns:xlink="http://www.w3.org/1999/xlink" width="1440" height="180" viewBox="0 0 1440 180">
    <defs>
        <path id="a" d="M0 0h1440v180H0z"/>
        <linearGradient id="b" x1="25.496%" x2="65.928%" y1="3.079%" y2="137.042%">
            <stop offset="0%" stop-color="#B4E8B9"/>
            <stop offset="100%" stop-color="#0CE0E0"/>
        </linearGradient>
        <linearGradient id="d" x1="0%" y1="0%" y2="100%">
            <stop offset="0%" stop-color="#64AEFF" stop-opacity="0"/>
            <stop offset="100%" stop-color="#64AEFF" stop-opacity=".7"/>
        </linearGradient>
    </defs>
    <g fill="none" fill-rule="evenodd">
        <mask id="c" fill="#fff">
            <use xlink:href="#a"/>
        </mask>
        <use fill="#212529" xlink:href="#a"/>
        <path fill="url(#b)" fill-opacity=".1" d="M1597.22 490.228c-.827-1.69-1.542-3.449-2.413-5.116-.85-1.69-1.564-3.45-2.458-5.117-.826-1.667-1.541-3.449-2.412-5.093-.85-1.69-1.564-3.449-2.458-5.116-.826-1.69-1.541-3.45-2.412-5.094-.85-1.69-1.564-3.471-2.435-5.116-.827-1.69-1.564-3.449-2.458-5.093-.826-1.713-1.541-3.472-2.412-5.117-.827-1.69-1.542-3.448-2.435-5.116-.85-1.69-1.564-3.449-2.458-5.116-.826-1.69-1.519-3.449-2.412-5.093-.827-1.69-1.564-3.45-2.435-5.117-.85-1.69-1.564-3.449-2.435-5.093-.827-1.69-1.542-3.472-2.435-5.116-.827-1.69-1.564-3.45-2.435-5.116-.827-1.69-1.542-3.45-2.435-5.094-.827-1.69-1.542-3.449-2.435-5.116-.85-1.69-1.542-3.449-2.435-5.094-.827-1.713-1.542-3.471-2.435-5.139-.827-1.667-1.542-3.426-2.435-5.093-.827-1.69-1.542-3.449-2.435-5.093-.827-1.713-1.541-3.472-2.413-5.117-.871-1.69-1.563-3.448-2.457-5.116-.827-1.69-1.541-3.449-2.413-5.093-.849-1.69-1.563-3.472-2.457-5.116-.827-1.69-1.541-3.45-2.413-5.094-.849-1.713-1.563-3.472-2.435-5.139-.849-1.667-1.563-3.426-2.457-5.093-.827-1.69-1.541-3.45-2.413-5.094-.826-1.713-1.563-3.471-2.457-5.116-.826-1.69-1.541-3.449-2.413-5.116-.848-1.69-1.541-3.45-2.435-5.116-.826-1.668-1.563-3.45-2.435-5.094-.848-1.69-1.54-3.449-2.435-5.116-.826-1.69-1.54-3.449-2.434-5.093-.85-1.69-1.564-3.472-2.435-5.117-.85-1.69-1.542-3.449-2.435-5.093-.827-1.713-1.564-3.472-2.435-5.116-.85-1.69-1.542-3.45-2.435-5.117-.827-1.69-1.542-3.448-2.435-5.116-.85-1.69-1.564-3.449-2.435-5.093-.827-1.69-1.542-3.45-2.435-5.116-.827-1.69-1.564-3.45-2.435-5.117-.827-1.667-1.542-3.449-2.435-5.093-.827-1.69-1.542-3.449-2.413-5.116-.849-1.69-1.564-3.45-2.457-5.117-.827-1.667-1.542-3.426-2.413-5.093-.849-1.69-1.564-3.449-2.435-5.116-.849-1.69-1.564-3.449-2.457-5.094-.827-1.69-1.542-3.448-2.413-5.116-.849-1.69-1.564-3.449-2.457-5.116-.827-1.667-1.542-3.449-2.413-5.093-.849-1.69-1.541-3.45-2.435-5.117-.849-1.69-1.564-3.449-2.457-5.116-.827-1.667-1.542-3.449-2.413-5.093-.826-1.69-1.564-3.45-2.457-5.117-.827-1.69-1.542-3.448-2.413-5.116-.849-1.667-1.541-3.426-2.435-5.093-.826-1.69-1.563-3.449-2.435-5.116-.849-1.69-1.541-3.45-2.435-5.094-.826-1.69-1.541-3.449-2.435-5.116-.849-1.69-1.541-3.449-2.435-5.116-.826-1.668-1.541-3.45-2.435-5.094-.826-1.69-1.563-3.449-2.435-5.116-.826-1.69-1.541-3.449-2.435-5.116-.826-1.667-1.541-3.449-2.412-5.093-.871-1.69-1.564-3.45-2.458-5.117-.826-1.69-1.541-3.449-2.435-5.116-.826-1.667-1.541-3.426-2.435-5.093-.826-1.69-1.54-3.45-2.435-5.117-.826-1.69-1.54-3.448-2.412-5.093-.827-1.69-1.564-3.449-2.457-5.116-.827-1.69-1.542-3.45-2.413-5.116-.849-1.668-1.542-3.45-2.457-5.094-.827-1.69-1.542-3.449-2.413-5.116-.849-1.69-1.542-3.449-2.435-5.116-.827-1.668-1.564-3.426-2.457-5.094-.827-1.69-1.542-3.449-2.413-5.116-.827-1.69-1.541-3.449-2.435-5.093-.849-1.69-1.564-3.45-2.435-5.117-.849-1.69-1.541-3.448-2.435-5.116-.827-1.667-1.564-3.449-2.435-5.093-.849-1.69-1.564-3.45-2.435-5.116-.826-1.69-1.541-3.45-2.435-5.117-.826-1.667-1.564-3.449-2.435-5.093-.849-1.69-1.541-3.449-2.435-5.116-.826-1.69-1.541-3.45-2.435-5.117-.849-1.667-1.541-3.426-2.435-5.093-.826-1.69-1.541-3.449-2.412-5.116-.85-1.69-1.564-3.45-2.458-5.094-.826-1.69-1.541-3.448-2.435-5.116-.826-1.69-1.541-3.449-2.412-5.116-.85-1.667-1.564-3.449-2.458-5.093-.826-1.69-1.541-3.45-2.412-5.117-.85-1.69-1.564-3.449-2.458-5.116-.826-1.667-1.541-3.426-2.435-5.093-.826-1.69-1.519-3.45-2.412-5.117-.827-1.69-1.564-3.448-2.458-5.116-.826-1.667-1.541-3.426-2.412-5.093-.827-1.69-1.542-3.449-2.458-5.116-.826-1.69-1.541-3.45-2.412-5.094-.85-1.69-1.542-3.449-2.435-5.116-.827-1.69-1.564-3.449-2.435-5.116-.85-1.668-1.564-3.45-2.435-5.094-.827-1.713-1.542-3.449-2.435-5.116-.85-1.69-1.564-3.449-2.435-5.116-.827-1.667-1.542-3.426-2.435-5.094-.827-1.69-1.564-3.448-2.435-5.116-.85-1.69-1.542-3.449-2.435-5.093-.827-1.713-1.542-3.449-2.413-5.116-.849-1.69-1.564-3.45-2.457-5.117-.827-1.667-1.542-3.448-2.435-5.093-.827-1.69-1.541-3.449-2.435-5.116-.849-1.69-1.541-3.45-2.435-5.116-.827-1.668-1.541-3.45-2.413-5.094-.826-1.69-1.563-3.449-2.457-5.116-.827-1.69-1.541-3.449-2.435-5.116-.827-1.69-1.541-3.426-2.413-5.094-.849-1.69-1.563-3.449-2.457-5.116-.827-1.69-1.541-3.449-2.413-5.093-.826-1.69-1.563-3.45-2.457-5.117-.826-1.69-1.541-3.448-2.413-5.116-.848-1.667-1.541-3.449-2.435-5.093-.826-1.69-1.563-3.45-2.435-5.116-.848-1.69-1.54-3.45-2.435-5.117-.826-1.667-1.54-3.426-2.457-5.093-.826-1.69-1.541-3.449-2.412-5.116-.827-1.69-1.542-3.45-2.435-5.094-.827-1.69-1.564-3.449-2.435-5.116-.85-1.69-1.542-3.449-2.435-5.116-.827-1.69-1.542-3.45-2.413-5.094-.871-1.69-1.564-3.448-2.457-5.116-.827-1.69-1.542-3.449-2.413-5.116-.849-1.667-1.586-3.449-2.457-5.093C1241.533-253.978 1181.128-295 1111.183-295 1012.22-295 932-212.98 932-111.775c0 31.703 7.863 61.532 21.736 87.547.827 1.69 1.564 3.449 2.457 5.116.827 1.69 1.542 3.45 2.413 5.094.849 1.713 1.541 3.472 2.435 5.116.849 1.69 1.564 3.449 2.435 5.116.849 1.69 1.541 3.426 2.435 5.094.827 1.69 1.564 3.449 2.457 5.116.827 1.69 1.542 3.449 2.413 5.116.849 1.69 1.541 3.449 2.435 5.094.827 1.69 1.564 3.471 2.435 5.116.849 1.69 1.541 3.449 2.435 5.093.826 1.69 1.541 3.449 2.435 5.116.849 1.69 1.564 3.45 2.435 5.117.826 1.69 1.541 3.449 2.435 5.093.826 1.713 1.564 3.449 2.435 5.116.826 1.69 1.541 3.45 2.435 5.116.826 1.69 1.541 3.45 2.412 5.117.872 1.667 1.564 3.449 2.458 5.093.826 1.69 1.541 3.449 2.412 5.094.85 1.713 1.564 3.448 2.458 5.116.826 1.69 1.541 3.449 2.435 5.116.826 1.69 1.541 3.449 2.412 5.093.85 1.713 1.564 3.45 2.458 5.117.826 1.69 1.541 3.448 2.412 5.116.85 1.69 1.564 3.449 2.458 5.116.826 1.667 1.541 3.449 2.412 5.093.85 1.69 1.564 3.45 2.435 5.117.827 1.69 1.564 3.426 2.435 5.093.85 1.69 1.564 3.449 2.435 5.116.827 1.69 1.542 3.45 2.435 5.117.85 1.69 1.564 3.448 2.435 5.093.85 1.69 1.542 3.449 2.435 5.116.827 1.69 1.564 3.45 2.435 5.094.85 1.713 1.542 3.471 2.435 5.116.827 1.69 1.542 3.449 2.435 5.116.85 1.69 1.564 3.426 2.435 5.093.827 1.69 1.542 3.45 2.435 5.117.827 1.69 1.564 3.449 2.435 5.116.849 1.69 1.542 3.449 2.435 5.093.827 1.69 1.542 3.45 2.413 5.117.849 1.69 1.563 3.448 2.457 5.093.827 1.713 1.541 3.472 2.435 5.116.827 1.69 1.541 3.45 2.413 5.116.849 1.69 1.563 3.45 2.457 5.094.827 1.713 1.541 3.449 2.413 5.116.826 1.69 1.563 3.449 2.457 5.116.827 1.69 1.541 3.45 2.413 5.117.849 1.667 1.541 3.448 2.435 5.093.848 1.69 1.563 3.449 2.457 5.093.826 1.713 1.541 3.45 2.413 5.117.826 1.69 1.563 3.448 2.457 5.116.826 1.69 1.541 3.449 2.413 5.093.848 1.713 1.54 3.45 2.435 5.116.826 1.69 1.563 3.45 2.434 5.117.85 1.69 1.564 3.449 2.435 5.116.827 1.667 1.542 3.449 2.435 5.093.85 1.69 1.564 3.45 2.435 5.117.827 1.69 1.542 3.426 2.435 5.093.827 1.69 1.564 3.449 2.435 5.116.85 1.69 1.542 3.449 2.435 5.116.827 1.69 1.542 3.45 2.413 5.094.871 1.69 1.564 3.449 2.457 5.116.827 1.69 1.542 3.449 2.413 5.093.849 1.713 1.586 3.472 2.457 5.117.827 1.69 1.542 3.449 2.435 5.116.827 1.69 1.542 3.426 2.413 5.093.849 1.69 1.564 3.45 2.457 5.116.827 1.69 1.542 3.45 2.435 5.117.827 1.69 1.52 3.449 2.413 5.093.849 1.69 1.564 3.449 2.457 5.116.827 1.69 1.542 3.45 2.413 5.094.826 1.713 1.564 3.471 2.457 5.116.827 1.69 1.542 3.449 2.413 5.116.849 1.69 1.541 3.45 2.435 5.094.849 1.69 1.564 3.471 2.435 5.116.849 1.69 1.541 3.449 2.435 5.116.826 1.69 1.564 3.449 2.457 5.116.827 1.668 1.541 3.45 2.413 5.094.826 1.69 1.541 3.449 2.435 5.093.826 1.713 1.563 3.449 2.435 5.116.826 1.69 1.541 3.45 2.435 5.117.826 1.69 1.541 3.448 2.435 5.093.849 1.713 1.541 3.472 2.435 5.116.826 1.69 1.541 3.45 2.435 5.116.826 1.69 1.563 3.45 2.435 5.117.848 1.667 1.541 3.449 2.435 5.093.826 1.69 1.541 3.449 2.412 5.093.85 1.713 1.564 3.472 2.458 5.117.826 1.69 1.541 3.449 2.412 5.116.85 1.69 1.564 3.449 2.457 5.116.827 1.69 1.542 3.45 2.435 5.094.827 1.69 1.52 3.448 2.413 5.116.827 1.69 1.564 3.449 2.457 5.093.827 1.713 1.542 3.472 2.413 5.116.849 1.69 1.542 3.45 2.457 5.117.827 1.69 1.542 3.449 2.413 5.093.849 1.69 1.541 3.472 2.435 5.116.827 1.69 1.564 3.45 2.457 5.117.827 1.69 1.542 3.448 2.413 5.093.827 1.69 1.541 3.449 2.435 5.116.849 1.69 1.564 3.449 2.435 5.094.849 1.713 1.541 3.471 2.435 5.116.827 1.69 1.564 3.449 2.435 5.116.849 1.69 1.541 3.449 2.435 5.093.826 1.69 1.541 3.472 2.413 5.117.848 1.69 1.586 3.449 2.457 5.116.826 1.69 1.541 3.449 2.435 5.116.826 1.667 1.541 3.449 2.435 5.094.849 1.69 1.541 3.448 2.435 5.093.826 1.713 1.541 3.472 2.412 5.116.85 1.69 1.564 3.449 2.458 5.116.826 1.69 1.541 3.45 2.412 5.094.85 1.713 1.564 3.471 2.435 5.116.85 1.69 1.564 3.449 2.458 5.116.826 1.69 1.541 3.45 2.412 5.116.85 1.668 1.564 3.45 2.458 5.094.826 1.69 1.541 3.449 2.412 5.093.85 1.713 1.542 3.472 2.435 5.116.827 1.69 1.564 3.45 2.458 5.117.826 1.69 1.541 3.449 2.412 5.116.827 1.69 1.542 3.449 2.458 5.093.826 1.69 1.541 3.45 2.412 5.117.827 1.69 1.542 3.448 2.435 5.093.827 1.69 1.564 3.472 2.435 5.116.85 1.69 1.542 3.45 2.435 5.116.827 1.69 1.542 3.45 2.435 5.094.85 1.69 1.542 3.472 2.435 5.116.827 1.69 1.542 3.449 2.435 5.116.827 1.69 1.564 3.45 2.435 5.094.827 1.69 1.542 3.449 2.435 5.116.827 1.69 1.542 3.449 2.413 5.093.849 1.713 1.586 3.472 2.457 5.117.827 1.69 1.541 3.448 2.435 5.116.827 1.69 1.541 3.449 2.435 5.093.827 1.69 1.541 3.472 2.435 5.116C1309.422 719.956 1369.85 761 1439.772 761 1538.757 761 1619 678.98 1619 577.775c0-31.703-7.908-61.532-21.78-87.547m-691.469-9.365c-1.452-3.083-2.792-6.235-4.378-9.204-1.452-3.084-2.793-6.213-4.401-9.205-1.43-3.083-2.792-6.19-4.378-9.182-1.43-3.083-2.793-6.212-4.379-9.204-1.43-3.084-2.77-6.19-4.4-9.182-1.408-3.084-2.77-6.213-4.357-9.205-1.43-3.083-2.792-6.213-4.378-9.205-1.453-3.06-2.793-6.19-4.379-9.181-1.452-3.084-2.792-6.213-4.4-9.205-1.43-3.06-2.793-6.213-4.38-9.182-1.451-3.083-2.77-6.212-4.355-9.182-1.453-3.083-2.793-6.212-4.401-9.204-1.43-3.084-2.793-6.213-4.379-9.205-1.43-3.06-2.792-6.213-4.378-9.182-1.452-3.083-2.793-6.212-4.401-9.204-1.43-3.061-2.793-6.213-4.379-9.182-1.407-3.084-2.77-6.213-4.378-9.205-1.43-3.083-2.77-6.213-4.356-9.182-1.452-3.083-2.793-6.212-4.401-9.204-1.43-3.084-2.793-6.213-4.379-9.182-1.43-3.084-2.792-6.213-4.378-9.205-1.452-3.083-2.793-6.212-4.401-9.205-1.43-3.06-2.77-6.212-4.379-9.181-1.407-3.084-2.77-6.213-4.356-9.182-1.452-3.106-2.792-6.236-4.378-9.205-1.452-3.083-2.793-6.212-4.401-9.182-1.43-3.083-2.792-6.212-4.379-9.204-1.452-3.084-2.792-6.213-4.378-9.205-1.43-3.083-2.77-6.213-4.379-9.182-1.43-3.083-2.792-6.212-4.378-9.204-1.43-3.084-2.792-6.213-4.379-9.205-1.452-3.06-2.792-6.19-4.4-9.182-1.43-3.083-2.793-6.212-4.379-9.182-1.43-3.106-2.77-6.212-4.356-9.204-1.452-3.084-2.792-6.213-4.379-9.205-1.452-3.083-2.792-6.19-4.4-9.182-1.43-3.083-2.793-6.212-4.379-9.182-1.43-3.083-2.792-6.235-4.378-9.204-1.452-3.084-2.793-6.213-4.401-9.205-1.43-3.083-2.793-6.213-4.379-9.182-1.407-3.083-2.77-6.212-4.378-9.204-1.43-3.084-2.77-6.213-4.356-9.182-1.452-3.084-2.793-6.213-4.401-9.205-1.43-3.083-2.793-6.212-4.379-9.205-1.452-3.06-2.792-6.19-4.378-9.181-1.43-3.084-2.77-6.213-4.401-9.205-1.407-3.06-2.77-6.213-4.356-9.182-1.43-3.083-2.793-6.212-4.379-9.182-1.452-3.106-2.792-6.212-4.4-9.204-1.43-3.084-2.793-6.213-4.379-9.205-1.43-3.06-2.792-6.213-4.379-9.182-1.43-3.083-2.77-6.212-4.378-9.204-1.43-3.084-2.77-6.213-4.379-9.182-1.43-3.084-2.792-6.213-4.378-9.205-1.43-3.083-2.792-6.19-4.379-9.182-1.452-3.083-2.792-6.212-4.4-9.204-1.43-3.084-2.793-6.213-4.379-9.182-1.407-3.084-2.77-6.213-4.356-9.205-1.452-3.083-2.792-6.212-4.379-9.204-1.452-3.061-2.792-6.213-4.4-9.182-1.43-3.084-2.793-6.213-4.379-9.182-1.43-3.106-2.792-6.213-4.378-9.205-1.452-3.083-2.77-6.212-4.401-9.204-1.408-3.084-2.77-6.19-4.356-9.182-1.43-3.084-2.793-6.213-4.379-9.205-1.452-3.083-2.792-6.212-4.4-9.182-1.43-3.083-2.793-6.212-4.38-9.204-1.429-3.084-2.792-6.213-4.378-9.205-1.452-3.06-2.77-6.19-4.356-9.182-1.452-3.083-2.792-6.212-4.4-9.182-1.43-3.106-2.793-6.212-4.38-9.204-1.429-3.084-2.792-6.213-4.378-9.205-1.452-3.083-2.792-6.213-4.4-9.182C557.123-252.152 495.623-295 424.182-295 325.22-295 245-212.98 245-111.775c0 31.771 7.908 61.67 21.848 87.73 1.452 3.083 2.792 6.212 4.4 9.205 1.408 3.06 2.77 6.19 4.357 9.181 1.43 3.084 2.792 6.213 4.378 9.182 1.452 3.106 2.793 6.213 4.379 9.205 1.452 3.083 2.792 6.212 4.4 9.204 1.43 3.061 2.793 6.213 4.38 9.182 1.429 3.084 2.77 6.213 4.378 9.205 1.43 3.083 2.77 6.213 4.4 9.205 1.408 3.06 2.77 6.19 4.357 9.181 1.43 3.084 2.792 6.19 4.378 9.182 1.452 3.084 2.793 6.213 4.379 9.205 1.452 3.083 2.792 6.212 4.4 9.182 1.43 3.083 2.77 6.212 4.379 9.204 1.43 3.084 2.77 6.213 4.356 9.205 1.452 3.06 2.793 6.19 4.401 9.182 1.43 3.083 2.792 6.212 4.378 9.204 1.43 3.084 2.793 6.213 4.379 9.182 1.452 3.084 2.792 6.213 4.378 9.182 1.43 3.084 2.793 6.213 4.401 9.205 1.408 3.083 2.77 6.212 4.379 9.204 1.43 3.084 2.77 6.213 4.356 9.182 1.452 3.084 2.792 6.213 4.4 9.205 1.43 3.083 2.793 6.212 4.38 9.182 1.429 3.083 2.792 6.235 4.378 9.204 1.452 3.084 2.792 6.213 4.4 9.182 1.408 3.106 2.77 6.213 4.357 9.205 1.43 3.083 2.792 6.212 4.378 9.204 1.452 3.084 2.793 6.213 4.379 9.182 1.452 3.084 2.792 6.213 4.4 9.182 1.43 3.084 2.793 6.236 4.38 9.205 1.429 3.083 2.77 6.212 4.355 9.182 1.452 3.106 2.793 6.235 4.401 9.227 1.43 3.06 2.793 6.19 4.379 9.182 1.43 3.083 2.792 6.212 4.378 9.182 1.452 3.083 2.793 6.212 4.379 9.204 1.452 3.084 2.792 6.213 4.4 9.205 1.43 3.06 2.77 6.19 4.357 9.182 1.452 3.083 2.792 6.212 4.378 9.204 1.452 3.084 2.793 6.19 4.401 9.182 1.43 3.084 2.792 6.213 4.379 9.205 1.43 3.083 2.792 6.19 4.378 9.182 1.452 3.083 2.77 6.212 4.379 9.204 1.43 3.061 2.792 6.213 4.4 9.182 1.408 3.084 2.77 6.213 4.357 9.205 1.452 3.083 2.792 6.212 4.378 9.182 1.452 3.083 2.792 6.212 4.4 9.204 1.43 3.084 2.793 6.19 4.38 9.182 1.407 3.084 2.792 6.213 4.378 9.205 1.43 3.083 2.77 6.212 4.4 9.182 1.408 3.083 2.77 6.212 4.357 9.204 1.43 3.084 2.792 6.213 4.378 9.205 1.452 3.06 2.793 6.19 4.379 9.182 1.452 3.083 2.792 6.212 4.4 9.204 1.408 3.084 2.77 6.213 4.38 9.182 1.429 3.084 2.77 6.213 4.355 9.205 1.452 3.083 2.793 6.212 4.401 9.182 1.43 3.083 2.793 6.212 4.379 9.204 1.43 3.084 2.792 6.213 4.378 9.182 1.452 3.084 2.793 6.236 4.401 9.205 1.407 3.083 2.77 6.212 4.356 9.182 1.43 3.083 2.793 6.212 4.379 9.204 1.452 3.084 2.792 6.213 4.378 9.182 1.452 3.106 2.793 6.213 4.401 9.205 1.43 3.083 2.792 6.212 4.379 9.204 1.43 3.084 2.792 6.213 4.378 9.182 1.43 3.084 2.77 6.213 4.379 9.182 1.43 3.106 2.792 6.235 4.378 9.228 1.43 3.06 2.792 6.19 4.379 9.159 1.452 3.106 2.792 6.235 4.378 9.204 1.452 3.106 2.792 6.213 4.4 9.205 1.43 3.083 2.77 6.212 4.38 9.182 1.43 3.083 2.77 6.212 4.356 9.204 1.452 3.084 2.792 6.213 4.4 9.182 1.43 3.084 2.793 6.236 4.379 9.205C619.853 718.152 681.33 761 752.772 761 851.757 761 932 678.98 932 577.775c0-31.794-7.953-61.67-21.892-87.73-1.408-3.083-2.77-6.212-4.357-9.182M297 577.5C297 678.844 214.844 761 113.5 761S-70 678.844-70 577.5 12.156 394 113.5 394 297 476.156 297 577.5" mask="url(#c)"/>
        <g fill="url(#d)" opacity=".4">
            <path d="M0 0h1440v180H0z"/>
        </g>
    </g>
</svg>
